<svg xmlns="http://www.w3.org/2000/svg" viewBox="0 0 200 200">
  <rect x="18" y="18" width="164" height="164" rx="42" fill="#fff7e8"/>
  <path d="M54 123c0-34 23-59 48-59s48 25 48 59c0 22-19 36-48 36s-48-14-48-36z" fill="#fff4df" stroke="#6d5650" stroke-width="7"/>
  <path d="M86 73c1 19 7 31 16 40M102 66c-2 20 2 35 12 47M119 74c-8 18-9 31-3 42" fill="none" stroke="#e8cfb8" stroke-width="6" stroke-linecap="round"/>
  <circle cx="86" cy="125" r="6" fill="#44343b"/>
  <circle cx="118" cy="125" r="6" fill="#44343b"/>
  <path d="M96 139q6 5 12 0" fill="none" stroke="#44343b" stroke-width="5" stroke-linecap="round"/>
</svg>
